<?xml version="1.0" standalone="no"?><!DOCTYPE svg PUBLIC "-//W3C//DTD SVG 1.1//EN" "http://www.w3.org/Graphics/SVG/1.1/DTD/svg11.dtd"><svg t="1648790379783" class="icon" viewBox="0 0 1024 1024" version="1.1" xmlns="http://www.w3.org/2000/svg" p-id="15759" width="32" height="32" xmlns:xlink="http://www.w3.org/1999/xlink"><defs><style type="text/css">@font-face { font-family: feedback-iconfont; src: url("//at.alicdn.com/t/font_1031158_u69w8yhxdu.woff2?t=1630033759944") format("woff2"), url("//at.alicdn.com/t/font_1031158_u69w8yhxdu.woff?t=1630033759944") format("woff"), url("//at.alicdn.com/t/font_1031158_u69w8yhxdu.ttf?t=1630033759944") format("truetype"); }
</style></defs><path d="M680.97024 343.06048A238.26432 238.26432 0 0 0 512 273.05984c-131.93216 0-238.92992 106.97728-238.92992 238.92992S380.06784 750.94016 512 750.94016c120.29952 0 219.5968-89.05728 236.19584-204.81024H512v-68.27008h307.2v34.12992a313.1392 313.1392 0 0 1-1.9968 34.14016C800.2048 699.74016 670.12608 819.21024 512 819.21024c-169.66656 0-307.2-137.53344-307.2-307.22048 0-169.64608 137.53344-307.2 307.2-307.2 84.82816 0 161.62816 34.39616 217.23136 89.99936l-48.26112 48.27136z" p-id="15760"></path></svg>