<?xml version="1.0" standalone="no"?><!DOCTYPE svg PUBLIC "-//W3C//DTD SVG 1.1//EN" "http://www.w3.org/Graphics/SVG/1.1/DTD/svg11.dtd"><svg t="1648724035322" class="icon" viewBox="0 0 1024 1024" version="1.1" xmlns="http://www.w3.org/2000/svg" p-id="18884" width="32" height="32" xmlns:xlink="http://www.w3.org/1999/xlink"><defs><style type="text/css">@font-face { font-family: feedback-iconfont; src: url("//at.alicdn.com/t/font_1031158_u69w8yhxdu.woff2?t=1630033759944") format("woff2"), url("//at.alicdn.com/t/font_1031158_u69w8yhxdu.woff?t=1630033759944") format("woff"), url("//at.alicdn.com/t/font_1031158_u69w8yhxdu.ttf?t=1630033759944") format("truetype"); }
</style></defs><path d="M942.515662 870.783433L803.879162 732.069161c53.985542-69.604264 86.128613-156.997684 86.128613-251.901147 0-227.201605-184.184883-411.383418-411.383418-411.383418-227.202629 0-411.383418 184.181813-411.383418 411.383418 0 227.197512 184.179766 411.383418 411.383418 411.383418 94.971002 0 182.421726-32.18912 252.049526-86.243223l138.640594 138.718365a51.632961 51.632961 0 0 0 73.199139 0 51.700499 51.700499 0 0 0 15.205307-36.623106 51.687196 51.687196 0 0 0-15.203261-36.620035zM222.962559 651.374304c-81.683371-122.089639-65.742307-284.876166 38.068014-388.801097a305.799708 305.799708 0 0 1 217.593784-90.294492c146.891512-0.113587 273.407973 103.554494 302.167994 247.605308 28.755927 144.048767-48.247864 288.355407-183.92394 344.657714-135.674029 56.301284-292.223504 8.921183-373.905852-113.167433z" p-id="18885"></path><path d="M550.933219 284.863886c-19.051915-20.996197-49.764404-20.996197-68.811202 0-18.885116 21.177322-18.885116 55.32198 0 76.504418L585.461617 475.993948c19.051915 20.99108 49.759287 20.99108 68.811202 0 18.816554-21.255093 18.709107-55.399751-0.2415-76.509534l-103.0981-114.620528z" p-id="18886"></path></svg>