<?xml version="1.0" standalone="no"?><!DOCTYPE svg PUBLIC "-//W3C//DTD SVG 1.1//EN" "http://www.w3.org/Graphics/SVG/1.1/DTD/svg11.dtd"><svg t="1648782606796" class="icon" viewBox="0 0 1024 1024" version="1.1" xmlns="http://www.w3.org/2000/svg" p-id="2851" width="32" height="32" xmlns:xlink="http://www.w3.org/1999/xlink"><defs><style type="text/css">@font-face { font-family: feedback-iconfont; src: url("//at.alicdn.com/t/font_1031158_u69w8yhxdu.woff2?t=1630033759944") format("woff2"), url("//at.alicdn.com/t/font_1031158_u69w8yhxdu.woff?t=1630033759944") format("woff"), url("//at.alicdn.com/t/font_1031158_u69w8yhxdu.ttf?t=1630033759944") format("truetype"); }
</style></defs><path d="M864 192H704v-64h-64v64H384v-64h-64v64H160c-17.6 0-32 14.4-32 32v640c0 17.6 14.4 32 32 32h704c17.6 0 32-14.4 32-32V224c0-17.6-14.4-32-32-32z m-32 640H192V384h640v448zM384 512H256v-64h128v64z m192 0H448v-64h128v64z m192 0H640v-64h128v64zM384 640H256v-64h128v64z m192 0H448v-64h128v64z m192 0H640v-64h128v64zM384 768H256v-64h128v64z m192 0H448v-64h128v64z" p-id="2852"></path></svg>