<?xml version="1.0" standalone="no"?><!DOCTYPE svg PUBLIC "-//W3C//DTD SVG 1.1//EN" "http://www.w3.org/Graphics/SVG/1.1/DTD/svg11.dtd"><svg t="1648860847722" class="icon" viewBox="0 0 1024 1024" version="1.1" xmlns="http://www.w3.org/2000/svg" p-id="14931" width="32" height="32" xmlns:xlink="http://www.w3.org/1999/xlink"><defs><style type="text/css">@font-face { font-family: feedback-iconfont; src: url("//at.alicdn.com/t/font_1031158_u69w8yhxdu.woff2?t=1630033759944") format("woff2"), url("//at.alicdn.com/t/font_1031158_u69w8yhxdu.woff?t=1630033759944") format("woff"), url("//at.alicdn.com/t/font_1031158_u69w8yhxdu.ttf?t=1630033759944") format("truetype"); }
</style></defs><path d="M461.793333 559.62L33.866667 131.693333A53.073333 53.073333 0 0 1 53.333333 128h437.333334a320.033333 320.033333 0 0 0 15.166666 402.666667l-28.94 28.933333a10.666667 10.666667 0 0 1-15.08 0zM746.666667 640a318.76 318.76 0 0 1-210.666667-79.146667l-28.933333 28.94a53.333333 53.333333 0 0 1-75.426667 0L3.693333 161.866667A53.073333 53.073333 0 0 0 0 181.333333v661.333334a53.393333 53.393333 0 0 0 53.333333 53.333333h832a53.393333 53.393333 0 0 0 53.333334-53.333333V576a318.573333 318.573333 0 0 1-192 64z m277.333333-320c0 153.166667-124.166667 277.333333-277.333333 277.333333S469.333333 473.166667 469.333333 320 593.5 42.666667 746.666667 42.666667s277.333333 124.166667 277.333333 277.333333z m-256 106.666667V341.333333h85.333333a21.333333 21.333333 0 0 0 0-42.666666h-85.333333V213.333333a21.333333 21.333333 0 0 0-42.666667 0v85.333334H640a21.333333 21.333333 0 0 0 0 42.666666h85.333333v85.333334a21.333333 21.333333 0 0 0 42.666667 0z" fill="#2c2c2c" p-id="14932"></path></svg>