<?xml version="1.0" standalone="no"?><!DOCTYPE svg PUBLIC "-//W3C//DTD SVG 1.1//EN" "http://www.w3.org/Graphics/SVG/1.1/DTD/svg11.dtd"><svg t="1648800865389" class="icon" viewBox="0 0 1024 1024" version="1.1" xmlns="http://www.w3.org/2000/svg" p-id="3483" width="32" height="32" xmlns:xlink="http://www.w3.org/1999/xlink"><defs><style type="text/css">@font-face { font-family: feedback-iconfont; src: url("//at.alicdn.com/t/font_1031158_u69w8yhxdu.woff2?t=1630033759944") format("woff2"), url("//at.alicdn.com/t/font_1031158_u69w8yhxdu.woff?t=1630033759944") format("woff"), url("//at.alicdn.com/t/font_1031158_u69w8yhxdu.ttf?t=1630033759944") format("truetype"); }
</style></defs><path d="M512.65 49c60.993 0 110.437 49.428 110.437 110.4 0 2.617-0.09 5.212-0.27 7.784 0.7 0.438 1.392 0.91 2.069 1.416L840.416 329.6l38.057 0.001c44.474 0 80.527 36.041 80.527 80.5v478.4c0 44.459-36.053 80.5-80.527 80.5H144.527C100.053 969 64 932.959 64 888.5V410.1c0-44.459 36.053-80.5 80.527-80.5l54.161-0.001 204.854-153.023a111.052 111.052 0 0 1-1.314-15.35l-0.015-1.826c0-60.972 49.445-110.4 110.437-110.4z m258.433 654.35h-520.72l-0.707 0.008c-16.192 0.375-29.204 13.615-29.204 29.892 0 16.348 13.125 29.632 29.416 29.896l0.494 0.004h520.721l0.706-0.008c16.193-0.375 29.204-13.615 29.204-29.892 0-16.513-13.391-29.9-29.91-29.9z m-244.068-170.2H250.362l-0.706 0.008c-16.192 0.375-29.204 13.615-29.204 29.892 0 16.348 13.125 29.632 29.416 29.896l0.494 0.004h276.653l0.706-0.008c16.193-0.375 29.204-13.615 29.204-29.892 0-16.513-13.39-29.9-29.91-29.9z m213.466-203.551L601.117 225.495c-20.142 26.897-52.27 44.305-88.467 44.305-33.223 0-63.02-14.666-83.266-37.875l-130.76 97.674h441.857zM512.651 108.8c-27.956 0-50.618 22.654-50.618 50.6S484.695 210 512.65 210s50.617-22.654 50.617-50.6-22.662-50.6-50.617-50.6z" fill="#333333" p-id="3484"></path></svg>