<?xml version="1.0" standalone="no"?><!DOCTYPE svg PUBLIC "-//W3C//DTD SVG 1.1//EN" "http://www.w3.org/Graphics/SVG/1.1/DTD/svg11.dtd"><svg t="1648724645499" class="icon" viewBox="0 0 1024 1024" version="1.1" xmlns="http://www.w3.org/2000/svg" p-id="24189" width="32" height="32" xmlns:xlink="http://www.w3.org/1999/xlink"><defs><style type="text/css">@font-face { font-family: feedback-iconfont; src: url("//at.alicdn.com/t/font_1031158_u69w8yhxdu.woff2?t=1630033759944") format("woff2"), url("//at.alicdn.com/t/font_1031158_u69w8yhxdu.woff?t=1630033759944") format("woff"), url("//at.alicdn.com/t/font_1031158_u69w8yhxdu.ttf?t=1630033759944") format("truetype"); }
</style></defs><path d="M457.386667 152.462222V409.6c0 38.684444-29.582222 68.266667-65.991111 68.266667H147.911111c-36.408889 0-65.991111-29.582222-65.991111-68.266667V152.462222c0-38.684444 29.582222-68.266667 65.991111-68.266666h245.76c34.133333 0 63.715556 31.857778 63.715556 68.266666zM605.297778 477.866667h245.76c36.408889 0 65.991111-29.582222 65.991111-68.266667V152.462222c0-38.684444-29.582222-68.266667-65.991111-68.266666H605.297778c-36.408889 0-65.991111 29.582222-65.991111 68.266666V409.6c2.275556 36.408889 29.582222 68.266667 65.991111 68.266667z m-213.902222 68.266666H147.911111c-36.408889 0-65.991111 31.857778-65.991111 68.266667v254.862222c0 38.684444 29.582222 68.266667 65.991111 68.266667h245.76c36.408889 0 65.991111-29.582222 65.991111-68.266667V614.4c-2.275556-36.408889-31.857778-68.266667-68.266666-68.266667z m466.488888 0H614.4c-36.408889 0-65.991111 31.857778-65.991111 68.266667v254.862222c0 38.684444 29.582222 68.266667 65.991111 68.266667h245.76c36.408889 0 65.991111-29.582222 65.991111-68.266667V614.4c-2.275556-36.408889-31.857778-68.266667-68.266667-68.266667z" fill="" p-id="24190"></path></svg>