<?xml version="1.0" standalone="no"?><!DOCTYPE svg PUBLIC "-//W3C//DTD SVG 1.1//EN" "http://www.w3.org/Graphics/SVG/1.1/DTD/svg11.dtd"><svg t="1648724763961" class="icon" viewBox="0 0 1024 1024" version="1.1" xmlns="http://www.w3.org/2000/svg" p-id="25910" width="32" height="32" xmlns:xlink="http://www.w3.org/1999/xlink"><defs><style type="text/css">@font-face { font-family: feedback-iconfont; src: url("//at.alicdn.com/t/font_1031158_u69w8yhxdu.woff2?t=1630033759944") format("woff2"), url("//at.alicdn.com/t/font_1031158_u69w8yhxdu.woff?t=1630033759944") format("woff"), url("//at.alicdn.com/t/font_1031158_u69w8yhxdu.ttf?t=1630033759944") format("truetype"); }
</style></defs><path d="M416.027693 819.076794c168.524205 0 212.393341-94.105285 212.393341-94.105285l0-235.268328L206.274482 489.703181l0 235.268328C206.274482 724.971509 240.887814 819.076794 416.027693 819.076794L416.027693 819.076794zM583.012845 157.025313c0 0-3.724835-24.486694-36.763298-34.837436-30.115901-9.43079-92.075045-24.032346-97.92631-58.424644 0 0-43.533492 45.977147 42.538839 120.095215 0 0 47.982828 37.552268 0 117.632117C490.862076 301.491589 602.932524 236.935294 583.012845 157.025313L583.012845 157.025313zM769.146103 724.971509c77.884858-3.421936 140.709719-94.109378 140.709719-94.109378 132.066875-203.673749-46.90631-329.378729-46.90631-329.378729L490.862076 301.483402 348.682889 301.483402 65.54839 301.483402l0 402.045749c0 0 0 150.049434 140.726092 162.601308L112.4547 866.13046c-25.877367 0-46.90631 21.069875-46.90631 47.053666 0 25.981744 21.028942 47.050596 46.90631 47.050596l609.776907 0c25.885554 0 46.914496-21.069875 46.914496-47.050596 0-25.984814-21.028942-47.053666-46.914496-47.053666l-93.811596 0C728.558709 850.646813 769.146103 724.971509 769.146103 724.971509L769.146103 724.971509zM675.325297 724.971509c0 0 0.122797 67.263963-140.717905 141.15895L300.078914 866.13046c0 0-140.717905-51.809993-140.717905-162.601308L159.361009 395.588687l515.965312 0L675.326321 724.971509 675.325297 724.971509zM769.146103 677.914774 769.146103 395.588687l46.898123 0C962.490599 478.193033 769.146103 677.914774 769.146103 677.914774L769.146103 677.914774zM384.863926 207.384257c0 0-84.755336-74.438363 1.545192-103.635335l-37.727253 9.522887c0 0-89.941452 22.237467-36.189224 94.112448 0 0 50.424436 58.756195 36.189224 94.106308C348.682889 301.491589 425.213913 248.721735 384.863926 207.384257L384.863926 207.384257zM384.863926 207.384257" p-id="25911"></path></svg>